{
  "accessors": [
    {
      "bufferView": 3,
      "componentType": 5126,
      "count": 5210,
      "max": [
        0.8747735023498535,
        0.16673041880130768,
        0.041474781930446625
      ],
      "min": [
        -0.3959117531776428,
        -0.13859950006008148,
        -0.04780636727809906
      ],
      "type": "VEC3"
    },
    {
      "bufferView": 3,
      "byteOffset": 62520,
      "componentType": 5126,
      "count": 5210,
      "max": [
        1.0,
        1.0,
        1.0
      ],
      "min": [
        -1.0,
        -1.0,
        -1.0
      ],
      "type": "VEC3"
    },
    {
      "bufferView": 4,
      "componentType": 5126,
      "count": 5210,
      "max": [
        1.0,
        1.0,
        1.0,
        1.0
      ],
      "min": [
        -1.0,
        -1.0,
        -1.0,
        -1.0
      ],
      "type": "VEC4"
    },
    {
      "bufferView": 2,
      "componentType": 5126,
      "count": 5210,
      "max": [
        1.9951171875,
        0.9939346313476563
      ],
      "min": [
        0.007717132568359375,
        0.0068359375
      ],
      "type": "VEC2"
    },
    {
      "bufferView": 1,
      "componentType": 5125,
      "count": 20817,
      "type": "SCALAR"
    },
    {
      "bufferView": 3,
      "byteOffset": 125040,
      "componentType": 5126,
      "count": 959,
      "max": [
        0.3860526978969574,
        0.11934240907430649,
        0.029713373631238937
      ],
      "min": [
        0.16588717699050903,
        -0.2020898163318634,
        -0.029713373631238937
      ],
      "type": "VEC3"
    },
    {
      "bufferView": 3,
      "byteOffset": 136548,
      "componentType": 5126,
      "count": 959,
      "max": [
        0.9990052580833435,
        1.0,
        1.0
      ],
      "min": [
        -1.0,
        -0.943566620349884,
        -1.0
      ],
      "type": "VEC3"
    },
    {
      "bufferView": 4,
      "byteOffset": 83360,
      "componentType": 5126,
      "count": 959,
      "max": [
        1.0,
        0.9996439218521118,
        1.0,
        1.0
      ],
      "min": [
        -1.0,
        -0.9994606375694275,
        -1.0,
        -1.0
      ],
      "type": "VEC4"
    },
    {
      "bufferView": 2,
      "byteOffset": 41680,
      "componentType": 5126,
      "count": 959,
      "max": [
        1.99609375,
        0.9943466186523438
      ],
      "min": [
        0.08306884765625,
        0.005859375
      ],
      "type": "VEC2"
    },
    {
      "bufferView": 2,
      "byteOffset": 49352,
      "componentType": 5126,
      "count": 959,
      "max": [
        0.98388671875,
        0.9921875
      ],
      "min": [
        0.0078125,
        0.01220703125
      ],
      "type": "VEC2"
    },
    {
      "bufferView": 1,
      "byteOffset": 83268,
      "componentType": 5125,
      "count": 3822,
      "type": "SCALAR"
    },
    {
      "bufferView": 5,
      "componentType": 5126,
      "count": 14,
      "max": [
        1.000000238418579,
        8.046504973435731e-08,
        1.0000001192092896,
        0.0,
        0.4567287266254425,
        1.0000003576278687,
        1.0000003576278687,
        0.0,
        0.6423380970954895,
        1.192093321833454e-07,
        1.0,
        0.0,
        0.6322423219680786,
        0.0019647274166345596,
        0.20282453298568726,
        1.0
      ],
      "min": [
        -1.6788774814813223e-07,
        -0.10788309574127197,
        -0.7807436585426331,
        0.0,
        0.0,
        -6.70553177428701e-08,
        0.0,
        0.0,
        -1.0000001192092896,
        -1.0000001192092896,
        -1.678877197264228e-07,
        0.0,
        -0.8821405172348022,
        -0.11755891889333725,
        -0.46613192558288574,
        1.0
      ],
      "type": "MAT4"
    },
    {
      "bufferView": 0,
      "componentType": 5123,
      "count": 5210,
      "type": "VEC4"
    },
    {
      "bufferView": 4,
      "byteOffset": 98704,
      "componentType": 5126,
      "count": 5210,
      "max": [
        1.0,
        0.0,
        0.0,
        0.0
      ],
      "min": [
        1.0,
        0.0,
        0.0,
        0.0
      ],
      "type": "VEC4"
    }
  ],
  "asset": {
    "extras": {
      "author": "Mira (https://sketchfab.com/almborziloff)",
      "license": "CC-BY-4.0 (http://creativecommons.org/licenses/by/4.0/)",
      "source": "https://sketchfab.com/3d-models/reaver-vandal-93873cb9b4644c19981868e0830596df",
      "title": "Reaver Vandal"
    },
    "generator": "Sketchfab-15.30.0",
    "version": "2.0"
  },
  "bufferViews": [
    {
      "buffer": 0,
      "byteLength": 41680,
      "byteStride": 8,
      "name": "shortBufferViews",
      "target": 34962
    },
    {
      "buffer": 0,
      "byteLength": 98556,
      "byteOffset": 41680,
      "name": "floatBufferViews",
      "target": 34963
    },
    {
      "buffer": 0,
      "byteLength": 57024,
      "byteOffset": 140236,
      "byteStride": 8,
      "name": "floatBufferViews",
      "target": 34962
    },
    {
      "buffer": 0,
      "byteLength": 148056,
      "byteOffset": 197260,
      "byteStride": 12,
      "name": "floatBufferViews",
      "target": 34962
    },
    {
      "buffer": 0,
      "byteLength": 182064,
      "byteOffset": 345316,
      "byteStride": 16,
      "name": "floatBufferViews",
      "target": 34962
    },
    {
      "buffer": 0,
      "byteLength": 896,
      "byteOffset": 527380,
      "name": "floatBufferViews"
    }
  ],
  "buffers": [
    {
      "byteLength": 528276,
      "uri": "scene.bin"
    }
  ],
  "extensionsUsed": [
    "KHR_materials_emissive_strength",
    "KHR_materials_specular"
  ],
  "images": [
    {
      "uri": "textures/AK_Fantasy_MI_baseColor.png"
    },
    {
      "uri": "textures/AK_Fantasy_MI_metallicRoughness.png"
    },
    {
      "uri": "textures/AK_Fantasy_MI_normal.png"
    }
  ],
  "materials": [
    {
      "doubleSided": true,
      "extensions": {
        "KHR_materials_emissive_strength": {
          "emissiveStrength": 2.851277879562633
        },
        "KHR_materials_specular": {
          "specularColorFactor": [
            1.0,
            1.0,
            1.0
          ],
          "specularFactor": 0.9592318671968941
        }
      },
      "name": "AK_Fantasy_MI",
      "normalTexture": {
        "index": 2
      },
      "pbrMetallicRoughness": {
        "baseColorTexture": {
          "index": 0
        },
        "metallicRoughnessTexture": {
          "index": 1
        },
        "roughnessFactor": 0.15759458377560343
      }
    }
  ],
  "meshes": [
    {
      "name": "Object_0",
      "primitives": [
        {
          "attributes": {
            "JOINTS_0": 12,
            "NORMAL": 1,
            "POSITION": 0,
            "TANGENT": 2,
            "TEXCOORD_0": 3,
            "WEIGHTS_0": 13
          },
          "indices": 4,
          "material": 0,
          "mode": 4
        }
      ]
    },
    {
      "name": "Object_1",
      "primitives": [
        {
          "attributes": {
            "NORMAL": 6,
            "POSITION": 5,
            "TANGENT": 7,
            "TEXCOORD_0": 8,
            "TEXCOORD_1": 9
          },
          "indices": 10,
          "material": 0,
          "mode": 4
        }
      ]
    }
  ],
  "nodes": [
    {
      "children": [
        1
      ],
      "matrix": [
        1.0,
        0.0,
        0.0,
        0.0,
        0.0,
        2.220446049250313e-16,
        -1.0,
        0.0,
        0.0,
        1.0,
        2.220446049250313e-16,
        0.0,
        0.0,
        0.0,
        0.0,
        1.0
      ],
      "name": "Sketchfab_model"
    },
    {
      "children": [
        2
      ],
      "name": "root"
    },
    {
      "children": [
        3
      ],
      "matrix": [
        1.0,
        0.0,
        0.0,
        0.0,
        0.0,
        2.220446049250313e-16,
        1.0,
        0.0,
        0.0,
        -1.0,
        2.220446049250313e-16,
        0.0,
        0.0,
        0.0,
        0.0,
        1.0
      ],
      "name": "GLTF_SceneRootNode"
    },
    {
      "children": [
        4
      ],
      "name": "GN_AK_Fantasy_Skelmesh.ao_15"
    },
    {
      "children": [
        5,
        7,
        6
      ],
      "name": "GLTF_created_0"
    },
    {
      "children": [
        8
      ],
      "name": "GLTF_created_0_rootJoint"
    },
    {
      "name": "GN_AK_Fantasy_Skelmesh.mo_14"
    },
    {
      "mesh": 0,
      "name": "Object_7",
      "skin": 0
    },
    {
      "children": [
        9
      ],
      "name": "Skeleton_13",
      "rotation": [
        -4.2146837131440407e-08,
        0.7071068286895752,
        8.429369557916289e-08,
        0.7071067094802856
      ],
      "scale": [
        0.9999999403953552,
        0.9999997615814209,
        0.9999998807907104
      ]
    },
    {
      "children": [
        10,
        13,
        14,
        15,
        16,
        17,
        18,
        19,
        20,
        21,
        22
      ],
      "name": "Root_12",
      "rotation": [
        1.2434499569867648e-14,
        -3.5527174904487636e-15,
        4.8554156233267774e-15,
        1.0
      ],
      "scale": [
        0.9999999403953552,
        0.9999998807907104,
        1.0
      ],
      "translation": [
        -1.0591334865918689e-23,
        -2.9802322387695313e-08,
        -8.881785255792436e-16
      ]
    },
    {
      "children": [
        11
      ],
      "name": "Magazine_Main_1",
      "rotation": [
        -0.4999999403953552,
        -0.5,
        -0.5000001192092896,
        0.4999999403953552
      ],
      "translation": [
        -7.44898329685384e-08,
        -0.0646328553557396,
        0.2828109562397003
      ]
    },
    {
      "children": [
        12
      ],
      "matrix": [
        0.9999999999999852,
        1.4255323173501497e-07,
        -9.586540765809215e-08,
        0.0,
        9.586540765809215e-08,
        6.772360450213455e-15,
        0.9999999999999954,
        0.0,
        1.4255323173501497e-07,
        -0.9999999999999899,
        -6.8833827526759706e-15,
        0.0,
        -0.2828110456466675,
        -1.5497208849524213e-08,
        0.06463286280632019,
        1.0
      ],
      "name": "GN_AK_Magazine_Fantasy_Staticmesh.mo_0"
    },
    {
      "mesh": 1,
      "name": "Object_12"
    },
    {
      "name": "Magazine_Extra_2",
      "rotation": [
        -0.5,
        -0.5,
        -0.5000000596046448,
        0.5
      ],
      "scale": [
        1.0,
        0.9999999403953552,
        0.9999999403953552
      ],
      "translation": [
        1.0442206388461273e-07,
        -0.20282447338104248,
        -0.6322423219680786
      ]
    },
    {
      "name": "Bullet_3",
      "rotation": [
        -0.5,
        -0.4999999403953552,
        -0.5000001192092896,
        0.4999999403953552
      ],
      "translation": [
        -0.001964750699698925,
        0.08262278139591217,
        0.21969611942768097
      ]
    },
    {
      "name": "Ejection_Button_4",
      "rotation": [
        5.477102231227649e-15,
        2.4835209444518114e-09,
        3.3751179748155863e-15,
        1.0
      ],
      "scale": [
        0.9999999403953552,
        0.9999999403953552,
        1.0
      ],
      "translation": [
        -3.609790510950006e-08,
        0.010481559671461582,
        0.17064198851585388
      ]
    },
    {
      "name": "Trigger_5",
      "rotation": [
        5.477102654744123e-15,
        2.4835209444518114e-09,
        1.598761453052691e-15,
        1.0
      ],
      "scale": [
        0.9999999403953552,
        0.9999999403953552,
        1.0
      ],
      "translation": [
        -1.189571996462746e-08,
        0.04376273974776268,
        0.08862410485744476
      ]
    },
    {
      "name": "Muzzle_6",
      "rotation": [
        -0.5000000596046448,
        -0.4999999403953552,
        -0.5000000596046448,
        0.5
      ],
      "scale": [
        1.0,
        0.9999999403953552,
        0.9999999403953552
      ],
      "translation": [
        -1.803594642524331e-07,
        0.08913800120353699,
        0.8821405172348022
      ]
    },
    {
      "name": "Ejection_7",
      "rotation": [
        -0.2656480073928833,
        -0.9054297804832458,
        -0.03696072846651077,
        0.32903218269348145
      ],
      "scale": [
        0.9999999403953552,
        0.9999998807907104,
        0.9999999403953552
      ],
      "translation": [
        -0.02591128461062908,
        0.10882797092199326,
        0.2499542385339737
      ]
    },
    {
      "name": "Reflex_8",
      "rotation": [
        -0.5,
        -0.5,
        -0.5000000596046448,
        0.5
      ],
      "translation": [
        -9.758897067513317e-05,
        0.13913285732269287,
        0.16644133627414703
      ]
    },
    {
      "name": "Charging_Handle_9",
      "rotation": [
        5.329071788750172e-15,
        -5.960464477539063e-08,
        6.6317728862435015e-15,
        1.0
      ],
      "scale": [
        0.9999999403953552,
        0.9999999403953552,
        1.0
      ],
      "translation": [
        0.03075733594596386,
        0.11755894869565964,
        0.29933446645736694
      ]
    },
    {
      "name": "Left_Hand_Target_10",
      "rotation": [
        5.329071365233699e-15,
        -5.960465188081798e-08,
        6.631772039210554e-15,
        1.0
      ],
      "scale": [
        0.9999999403953552,
        0.9999999403953552,
        1.0
      ],
      "translation": [
        -9.852669080601117e-08,
        0.053387172520160675,
        0.4661319851875305
      ]
    },
    {
      "name": "Gun_Buddy_11",
      "rotation": [
        -0.4545194208621979,
        -0.5416752099990845,
        -0.4545195996761322,
        0.5416751503944397
      ],
      "scale": [
        0.9999998807907104,
        0.9999999403953552,
        1.0000001192092896
      ],
      "translation": [
        0.0288721714168787,
        0.08386734127998352,
        0.2184925526380539
      ]
    }
  ],
  "samplers": [
    {
      "magFilter": 9729,
      "minFilter": 9987,
      "wrapS": 10497,
      "wrapT": 10497
    }
  ],
  "scene": 0,
  "scenes": [
    {
      "name": "Sketchfab_Scene",
      "nodes": [
        0
      ]
    }
  ],
  "skins": [
    {
      "inverseBindMatrices": 11,
      "joints": [
        5,
        8,
        9,
        10,
        13,
        14,
        15,
        16,
        17,
        18,
        19,
        20,
        21,
        22
      ],
      "skeleton": 5
    }
  ],
  "textures": [
    {
      "sampler": 0,
      "source": 0
    },
    {
      "sampler": 0,
      "source": 1
    },
    {
      "sampler": 0,
      "source": 2
    }
  ]
}
